<svg xmlns="http://www.w3.org/2000/svg" width="1800" height="1000" viewBox="0 0 1800 1000">
<rect width="100%" height="100%" fill="#000000"/>
<g transform="translate(140,220)">
  <rect x="0" y="0" width="180" height="24" fill="#d4af37"/>
  <polygon points="180,0 225,0 180,24" fill="#d4af37"/>
  <rect x="0" y="85" width="180" height="24" fill="#f2f2f2"/>
  <polygon points="180,85 225,85 180,109" fill="#f2f2f2"/>
  <rect x="0" y="170" width="180" height="24" fill="#d4af37"/>
  <polygon points="180,170 225,170 180,194" fill="#d4af37"/>
</g>

<line x1="430" y1="220" x2="430" y2="560" stroke="#d4af37" stroke-width="4"/>

<text x="500" y="420" font-family="Montserrat, Arial, sans-serif" font-size="170" fill="#f5f5f5" letter-spacing="20">EPIKO</text>
<text x="600" y="560" font-family="Montserrat, Arial, sans-serif" font-size="80" fill="#d4af37" letter-spacing="14">MONTERREY</text>
<text x="520" y="660" font-family="Montserrat, Arial, sans-serif" font-size="55" fill="#ffffff" letter-spacing="10">TODO PARA TU EVENTO</text>

<g stroke="#d4af37" stroke-width="4" fill="none" transform="translate(320,760)">
  <path d="M0 40 L40 0 L80 40 M10 40 L10 90 L70 90 L70 40"/>
  <ellipse cx="220" cy="50" rx="45" ry="18"/>
  <line x1="175" y1="68" x2="265" y2="68"/>
  <line x1="175" y1="68" x2="175" y2="100"/>
  <line x1="265" y1="68" x2="265" y2="100"/>
  <rect x="420" y="25" width="28" height="60"/>
  <line x1="420" y1="25" x2="395" y2="55"/>
  <line x1="448" y1="25" x2="473" y2="55"/>
  <line x1="395" y1="55" x2="473" y2="55"/>
  <rect x="620" y="15" width="70" height="90" rx="6"/>
  <circle cx="655" cy="50" r="15"/>
  <path d="M635 75 h40"/>
  <path d="M635 88 h40"/>
  <path d="M835 80 q40 -80 80 0"/>
  <line x1="810" y1="80" x2="940" y2="80"/>
  <path d="M1080 80 q20 -60 50 0"/>
  <line x1="1080" y1="80" x2="1130" y2="80"/>
  <line x1="1105" y1="80" x2="1105" y2="120"/>
</g>
</svg>